<svg width="117" height="35" viewBox="0 0 117 35" fill="none" xmlns="http://www.w3.org/2000/svg">
<path d="M1.76 9.622V25H8.822V23.746H3.3V9.622H1.76ZM29.7198 17.3C29.7198 12.702 26.4418 9.446 22.1078 9.446C17.7958 9.446 14.4958 12.702 14.4958 17.3C14.4958 21.92 17.7958 25.154 22.1078 25.154C26.4418 25.154 29.7198 21.92 29.7198 17.3ZM16.0798 17.3C16.0798 13.274 18.6978 10.81 22.1078 10.81C25.5178 10.81 28.1358 13.274 28.1358 17.3C28.1358 21.326 25.5178 23.812 22.1078 23.812C18.6978 23.812 16.0798 21.326 16.0798 17.3ZM35.6177 10.898H39.9077V25H41.4477V10.898H45.7157V9.622H35.6177V10.898ZM52.2613 19.28C52.2613 23.35 54.7253 25.154 57.8493 25.154C60.9733 25.154 63.4373 23.35 63.4373 19.28V9.622H61.8973V19.302C61.8973 22.492 60.2693 23.79 57.8713 23.79C55.4733 23.79 53.8013 22.492 53.8013 19.302V9.622H52.2613V19.28ZM80.6663 20.952C80.6663 15.232 72.2183 17.96 72.2183 13.516C72.2183 11.734 73.7143 10.744 75.5183 10.766C77.6523 10.788 78.6863 12.108 78.8623 13.186H80.5343C80.2703 11.074 78.5103 9.446 75.5843 9.446C72.6143 9.446 70.6563 11.184 70.6563 13.56C70.6563 19.346 79.1043 16.486 79.1043 21.018C79.1043 22.602 77.8503 23.856 75.7163 23.856C73.2303 23.856 72.2843 22.316 72.1523 21.04H70.5243C70.6123 23.394 72.6363 25.154 75.7163 25.154C78.9723 25.154 80.6663 23.042 80.6663 20.952Z" fill="white"/>
<circle cx="99.4684" cy="17.4683" r="12.0277" transform="rotate(-44.3658 99.4684 17.4683)" stroke="url(#paint0_linear)" stroke-width="0.650146"/>
<mask id="path-3-inside-1" fill="white">
<path fill-rule="evenodd" clip-rule="evenodd" d="M90.6506 26.0929C95.4988 21.3372 95.5966 13.5619 90.8784 8.68579C95.643 13.505 103.406 13.5852 108.269 8.86082C103.422 13.6339 103.345 21.4323 108.106 26.2993C108.106 26.2993 108.106 26.2993 108.106 26.2993C108.106 26.2993 108.106 26.2994 108.106 26.2994C108.106 26.2993 108.106 26.2993 108.106 26.2993C103.34 21.4266 95.5286 21.3357 90.6506 26.0929Z"/>
</mask>
<path d="M90.8784 8.68579L91.3407 8.2287L90.4112 9.13789L90.8784 8.68579ZM90.6506 26.0929L90.1953 25.6287L91.1045 26.5583L90.6506 26.0929ZM108.269 8.86082L108.725 9.32406L107.816 8.3945L108.269 8.86082ZM108.106 26.2993L108.56 26.7641L109.025 26.3095L108.571 25.8447L108.106 26.2993ZM108.106 26.2994L107.641 26.754L108.095 27.2188L108.56 26.7642L108.106 26.2994ZM90.4112 9.13789C94.881 13.7573 94.7883 21.1234 90.1953 25.6287L91.1058 26.557C96.2093 21.551 96.3122 13.3665 91.3456 8.23369L90.4112 9.13789ZM107.816 8.3945C103.209 12.8701 95.8545 12.7942 91.3407 8.2287L90.4161 9.14288C95.4315 14.2159 103.603 14.3002 108.722 9.32715L107.816 8.3945ZM108.57 25.8447C104.061 21.2339 104.133 13.8459 108.725 9.32406L107.812 8.39758C102.71 13.4219 102.63 21.6308 107.641 26.7539L108.57 25.8447ZM108.571 25.8447C108.571 25.8447 108.571 25.8447 108.57 25.8447C108.57 25.8447 108.57 25.8447 108.57 25.8447L107.641 26.7539C107.641 26.7539 107.641 26.7539 107.641 26.7539C107.641 26.7539 107.641 26.7539 107.641 26.7539L108.571 25.8447ZM107.651 25.8345C107.651 25.8346 107.651 25.8346 107.651 25.8346C107.651 25.8346 107.651 25.8346 107.651 25.8346L108.56 26.7642C108.56 26.7642 108.56 26.7641 108.56 26.7641C108.56 26.7641 108.56 26.7641 108.56 26.7641L107.651 25.8345ZM107.641 26.7539C107.641 26.7539 107.641 26.7539 107.641 26.7539C107.641 26.7539 107.641 26.7539 107.641 26.7539L107.641 26.7539C107.641 26.7539 107.641 26.7539 107.641 26.7539C107.641 26.7539 107.641 26.7539 107.641 26.7539C107.641 26.7539 107.641 26.7539 107.641 26.7539C107.641 26.7539 107.641 26.7539 107.641 26.7539L107.641 26.7539C107.641 26.7539 107.641 26.7539 107.641 26.7539C107.641 26.7539 107.641 26.7539 107.641 26.7539L107.641 26.7539C107.641 26.7539 107.641 26.7539 107.641 26.7539C107.641 26.7539 107.641 26.7539 107.641 26.7539L107.641 26.7539C107.641 26.7539 107.641 26.7539 107.641 26.7539C107.641 26.7539 107.641 26.7539 107.641 26.7539L107.641 26.7539C107.641 26.7539 107.641 26.7539 107.641 26.7539C107.641 26.7539 107.641 26.7539 107.641 26.7539C107.641 26.7539 107.641 26.7539 107.641 26.7539L107.641 26.7539C107.641 26.7539 107.641 26.7539 107.641 26.7539C107.641 26.7539 107.641 26.7539 107.641 26.7539L107.641 26.7539C107.641 26.7539 107.641 26.7539 107.641 26.7539C107.641 26.7539 107.641 26.7539 107.641 26.7539C107.641 26.7539 107.641 26.7539 107.641 26.7539L107.641 26.7539C107.641 26.7539 107.641 26.7539 107.641 26.7539C107.641 26.7539 107.641 26.7539 107.641 26.7539C107.641 26.7539 107.641 26.7539 107.641 26.7539L107.641 26.7539C107.641 26.7539 107.641 26.7539 107.641 26.7539C107.641 26.7539 107.641 26.7539 107.641 26.7539L107.641 26.7539L107.641 26.7539C107.641 26.7539 107.641 26.7539 107.641 26.7539C107.641 26.7539 107.641 26.7539 107.641 26.7539L107.641 26.7539C107.641 26.7539 107.641 26.7539 107.641 26.7539C107.641 26.7539 107.641 26.7539 107.641 26.7539C107.641 26.7539 107.641 26.7539 107.641 26.7539L107.641 26.7539C107.641 26.7539 107.641 26.7539 107.641 26.754C107.641 26.754 107.641 26.754 107.641 26.754C107.641 26.754 107.641 26.754 107.641 26.754L107.641 26.754C107.641 26.754 107.641 26.754 107.641 26.754C107.641 26.754 107.641 26.754 107.641 26.754L107.641 26.754C107.641 26.754 107.641 26.754 107.641 26.754C107.641 26.754 107.641 26.754 107.641 26.754C107.641 26.754 107.641 26.754 107.641 26.754L107.641 26.754C107.641 26.754 107.641 26.754 107.641 26.754C107.641 26.754 107.641 26.754 107.641 26.754L107.641 26.754C107.641 26.754 107.641 26.754 107.641 26.754C107.641 26.754 107.641 26.754 107.641 26.754L107.641 26.754C107.641 26.754 107.641 26.754 107.641 26.754C107.641 26.754 107.641 26.754 107.641 26.754L107.641 26.754C107.641 26.754 107.641 26.754 107.641 26.754C107.641 26.754 107.641 26.754 107.641 26.754C107.641 26.754 107.641 26.754 107.641 26.754C107.641 26.754 107.641 26.754 107.641 26.754L107.641 26.754C107.641 26.754 107.641 26.754 107.641 26.754C107.641 26.754 107.641 26.754 107.641 26.754L108.57 25.8448C108.57 25.8448 108.57 25.8448 108.57 25.8448C108.57 25.8448 108.57 25.8448 108.57 25.8448L108.57 25.8448C108.57 25.8448 108.57 25.8448 108.57 25.8448C108.57 25.8448 108.57 25.8448 108.57 25.8448C108.57 25.8448 108.57 25.8448 108.57 25.8448C108.57 25.8448 108.57 25.8448 108.57 25.8448L108.57 25.8448C108.57 25.8448 108.57 25.8448 108.57 25.8448C108.57 25.8448 108.57 25.8448 108.57 25.8448L108.57 25.8448C108.57 25.8448 108.57 25.8448 108.57 25.8448C108.57 25.8448 108.57 25.8448 108.57 25.8448L108.57 25.8448C108.57 25.8448 108.57 25.8448 108.57 25.8448C108.57 25.8448 108.57 25.8448 108.57 25.8448L108.57 25.8448C108.57 25.8448 108.57 25.8448 108.57 25.8448C108.57 25.8448 108.57 25.8448 108.57 25.8447C108.57 25.8447 108.57 25.8447 108.57 25.8447L108.57 25.8447C108.57 25.8447 108.57 25.8447 108.57 25.8447C108.57 25.8447 108.57 25.8447 108.57 25.8447L108.57 25.8447C108.57 25.8447 108.57 25.8447 108.57 25.8447C108.57 25.8447 108.57 25.8447 108.57 25.8447C108.57 25.8447 108.57 25.8447 108.57 25.8447L108.57 25.8447C108.57 25.8447 108.57 25.8447 108.57 25.8447C108.57 25.8447 108.57 25.8447 108.57 25.8447C108.57 25.8447 108.57 25.8447 108.57 25.8447L108.57 25.8447C108.57 25.8447 108.57 25.8447 108.57 25.8447C108.57 25.8447 108.57 25.8447 108.57 25.8447L108.57 25.8447L108.57 25.8447C108.57 25.8447 108.57 25.8447 108.57 25.8447C108.57 25.8447 108.57 25.8447 108.57 25.8447L108.57 25.8447C108.57 25.8447 108.57 25.8447 108.57 25.8447C108.57 25.8447 108.57 25.8447 108.57 25.8447C108.57 25.8447 108.57 25.8447 108.57 25.8447L108.57 25.8447C108.57 25.8447 108.57 25.8447 108.57 25.8447C108.57 25.8447 108.57 25.8447 108.57 25.8447C108.57 25.8447 108.57 25.8447 108.57 25.8447L108.57 25.8447C108.57 25.8447 108.57 25.8447 108.57 25.8447C108.57 25.8447 108.57 25.8447 108.57 25.8447L108.57 25.8447C108.57 25.8447 108.57 25.8447 108.57 25.8447C108.57 25.8447 108.57 25.8447 108.57 25.8447C108.57 25.8447 108.57 25.8447 108.57 25.8447L108.57 25.8447C108.57 25.8447 108.57 25.8447 108.57 25.8447C108.57 25.8447 108.57 25.8447 108.57 25.8447L108.57 25.8447C108.57 25.8447 108.57 25.8447 108.57 25.8447C108.57 25.8447 108.57 25.8447 108.57 25.8447L108.57 25.8447C108.57 25.8447 108.57 25.8447 108.57 25.8447C108.57 25.8447 108.57 25.8447 108.57 25.8447L108.57 25.8447C108.57 25.8447 108.57 25.8447 108.57 25.8447C108.57 25.8447 108.57 25.8447 108.57 25.8447C108.57 25.8447 108.57 25.8447 108.57 25.8447C108.57 25.8447 108.57 25.8447 108.57 25.8447L108.57 25.8447C108.57 25.8447 108.57 25.8447 108.57 25.8447C108.57 25.8447 108.57 25.8447 108.57 25.8447L107.641 26.7539ZM91.1045 26.5583C95.7258 22.0516 103.126 22.1376 107.641 26.7539L108.57 25.8447C103.554 20.7155 95.3315 20.6199 90.1966 25.6274L91.1045 26.5583Z" fill="url(#paint1_linear)" mask="url(#path-3-inside-1)"/>
<path fill-rule="evenodd" clip-rule="evenodd" d="M90.8309 8.63734C90.8309 8.63736 90.8309 8.63738 90.8309 8.6374C85.9537 13.4078 85.8671 21.2286 90.6375 26.1058C95.4078 30.9829 103.229 31.0695 108.106 26.2992L108.106 26.2992C103.34 21.4264 95.5288 21.3356 90.6508 26.0927C95.4894 21.3465 95.5964 13.5924 90.9065 8.71458L90.8309 8.63734ZM108.073 26.2651C108.084 26.2765 108.095 26.2878 108.106 26.2992C108.106 26.2991 108.106 26.2991 108.106 26.2991L108.073 26.2651Z" fill="url(#paint2_linear)"/>
<defs>
<linearGradient id="paint0_linear" x1="99.4684" y1="5.11551" x2="99.4684" y2="29.821" gradientUnits="userSpaceOnUse">
<stop stop-color="#DFC279"/>
<stop offset="1" stop-color="#C29C44"/>
</linearGradient>
<linearGradient id="paint1_linear" x1="90.8695" y1="8.69447" x2="108.097" y2="26.3078" gradientUnits="userSpaceOnUse">
<stop stop-color="#DFC37D"/>
<stop offset="1" stop-color="#BE9840"/>
</linearGradient>
<linearGradient id="paint2_linear" x1="86.4155" y1="12.9561" x2="103.69" y2="30.6179" gradientUnits="userSpaceOnUse">
<stop stop-color="#DFC279"/>
<stop offset="1" stop-color="#C09940"/>
</linearGradient>
</defs>
</svg>
