<?xml version="1.0" encoding="UTF-8"?>
<!DOCTYPE svg PUBLIC "-//W3C//DTD SVG 1.1//EN" "http://www.w3.org/Graphics/SVG/1.1/DTD/svg11.dtd">
<!-- Creator: CorelDRAW -->
<svg xmlns="http://www.w3.org/2000/svg" xml:space="preserve" width="270mm" height="90mm" style="shape-rendering:geometricPrecision; text-rendering:geometricPrecision; image-rendering:optimizeQuality; fill-rule:evenodd; clip-rule:evenodd"
viewBox="0 0 270 90"
 xmlns:xlink="http://www.w3.org/1999/xlink">
 <defs>
  <style type="text/css">
   <![CDATA[
    .fil1 {fill:#FEFEFE}
    .fil0 {fill:#FEFEFE;fill-rule:nonzero}
    .fil2 {fill:url(#id2)}
   ]]>
  </style>
     <clipPath id="id0">
      <path d="M-3.8581 -3.5293l92.83 0 0 96.8574 -92.83 0 0 -96.8574z"/>
     </clipPath>
     <clipPath id="id1">
      <path d="M16.9306 12.9235l54.7545 0 0 63.9517 -54.7545 0 0 -63.9517z"/>
     </clipPath>
  <linearGradient id="id2" gradientUnits="userSpaceOnUse" x1="46.2803" y1="68.7208" x2="46.2803" y2="20.5936">
   <stop offset="0" style="stop-color:#29AEC9"/>
   <stop offset="1" style="stop-color:#233749"/>
  </linearGradient>
 </defs>
 <g id="Layer_x0020_1">
  <metadata id="CorelCorpID_0Corel-Layer"/>
  <g id="_308500464">
   <g>
    <path id="_307628720" class="fil0" d="M105.444 39.281l-3.3103 0 0 5.5087 0 0.418c0,0.978 -0.0919,1.8307 -0.2674,2.5495 -0.1756,0.7189 -0.4013,1.3291 -0.6938,1.8307 -0.2927,0.5098 -0.6186,0.9195 -0.9948,1.2371 -0.3678,0.3177 -0.7523,0.5768 -1.1369,0.7607 -0.9027,0.4431 -1.9309,0.6102 -3.0762,0.5183l0 -33.9381 15.8407 0c1.4126,0 2.6916,0.1672 3.8285,0.5098 1.1368,0.3428 2.1566,0.7942 3.0427,1.3543 0.886,0.56 1.6467,1.1953 2.2903,1.9142 0.6353,0.7189 1.162,1.4545 1.58,2.1984 0.4095,0.744 0.7105,1.4796 0.9111,2.1985 0.1923,0.7189 0.2926,1.3542 0.2926,1.9143 0,0.8359 -0.0669,1.6049 -0.1923,2.3154 -0.1338,0.7105 -0.3344,1.3793 -0.5935,2.0063 -0.2675,0.6269 -0.6018,1.2288 -1.0031,1.7887 -0.4013,0.5685 -0.8693,1.1202 -1.3959,1.6635 -1.371,1.3458 -3.0177,2.2654 -4.9236,2.7669l-0.0752 0.0167 8.8439 12.848 -7.7071 0 -6.4115 -9.8554c-0.234,-0.4681 -0.56,-0.886 -0.9863,-1.2622 -0.184,-0.1588 -0.4013,-0.3093 -0.6353,-0.4597 -0.2425,-0.1506 -0.5266,-0.2843 -0.8443,-0.4013 -0.3176,-0.1254 -0.6771,-0.2173 -1.0699,-0.2926 -0.3929,-0.0752 -0.836,-0.1087 -1.3124,-0.1087zm12.1374 -11.0256c0,-0.2676 -0.0334,-0.5601 -0.1086,-0.8778 -0.0753,-0.3176 -0.2007,-0.6269 -0.3846,-0.9362 -0.1839,-0.3093 -0.4347,-0.6102 -0.7356,-0.9028 -0.3093,-0.2925 -0.6938,-0.5434 -1.1535,-0.769 -0.4598,-0.2173 -1.0031,-0.4013 -1.6384,-0.535 -0.6354,-0.1337 -1.371,-0.2006 -2.2068,-0.2006l-9.2202 0 0 6.9966c0.1254,0.326 0.2926,0.6102 0.5183,0.8526 0.2173,0.2424 0.4681,0.4514 0.7439,0.6186 0.2759,0.1756 0.5685,0.3093 0.8778,0.4179 0.3009,0.1087 0.6102,0.1923 0.9195,0.2592 0.7105,0.1505 1.4796,0.209 2.3155,0.1839l3.8452 0c1.0282,0 1.9309,-0.1504 2.7083,-0.4514 0.7775,-0.2925 1.4378,-0.7105 1.9811,-1.2539 0.2508,-0.2507 0.4681,-0.5016 0.6604,-0.7356 0.1923,-0.2424 0.3594,-0.4848 0.4848,-0.7439 0.1337,-0.2592 0.2258,-0.5434 0.2926,-0.8444 0.0669,-0.3092 0.1003,-0.6687 0.1003,-1.0782zm33.5035 17.295l-8.8691 0.0251c-1.1535,0.0334 -2.1901,-0.1505 -3.1096,-0.535 -0.3845,-0.1672 -0.769,-0.3845 -1.1452,-0.6604 -0.3678,-0.2675 -0.7021,-0.6186 -0.9864,-1.0365 -0.2925,-0.418 -0.5266,-0.9195 -0.7021,-1.5047 -0.1755,-0.5768 -0.2591,-1.2622 -0.2591,-2.0563l15.0715 0 0 -6.8294c0,-1.513 -0.209,-2.8755 -0.6269,-4.0709 -0.4097,-1.2037 -1.0282,-2.2486 -1.8558,-3.143 -1.6551,-1.8056 -3.7282,-2.7084 -6.2275,-2.7084 -1.2539,0 -2.3991,0.2257 -3.4357,0.6687 -1.0365,0.443 -1.956,1.1201 -2.7752,2.0397 -1.6551,1.772 -2.4827,4.1795 -2.4827,7.2139l0 18.7161 -6.2693 0 0 -20.0452c0,-4.0124 1.396,-7.4313 4.1795,-10.265 1.4128,-1.4128 3.0093,-2.4743 4.7982,-3.1848 1.7888,-0.7106 3.7867,-1.0617 5.9852,-1.0617 2.2151,0 4.2129,0.3511 5.9934,1.0617 1.7805,0.7105 3.3688,1.772 4.7648,3.1848 2.8169,2.842 4.2213,6.261 4.2213,10.265l0 20.0452 -6.2693 0 0 -6.1189zm20.9563 0.301l5.9935 0c2.1316,-0.1087 4.0291,-0.5852 5.7009,-1.4295 0.7106,-0.3594 1.4127,-0.8192 2.0982,-1.3793 0.6854,-0.5684 1.2957,-1.2538 1.8306,-2.073 0.535,-0.8192 0.9613,-1.7805 1.2873,-2.8923 0.326,-1.1117 0.4933,-2.3991 0.4933,-3.8619 0,-0.6102 -0.067,-1.1954 -0.1924,-1.7554 -0.1253,-0.5601 -0.2925,-1.0867 -0.5015,-1.5799 -0.209,-0.5015 -0.443,-0.9613 -0.7105,-1.3876 -0.2591,-0.4263 -0.535,-0.8192 -0.8109,-1.1703 -0.652,-0.8192 -1.3876,-1.5548 -2.2152,-2.1985 -0.5767,-0.3928 -1.2203,-0.7439 -1.9309,-1.0615 -0.6102,-0.2675 -1.3375,-0.5183 -2.1734,-0.744 -0.8358,-0.2257 -1.7554,-0.3344 -2.7668,-0.3344 -0.1923,0 -0.4514,0 -0.7858,0 -0.3343,0 -0.7189,0 -1.1452,0 -0.4263,0 -0.8861,0 -1.3626,0 -0.4847,0 -0.9612,0 -1.4293,0 -1.1118,0 -2.3156,0 -3.6112,0l-0.0752 27.7356 -6.1189 0 0 -33.6037 14.0851 0c2.7167,0 5.166,0.4096 7.3394,1.2371 2.1817,0.8276 4.1043,2.0982 5.7845,3.8035 3.1597,3.1848 4.7396,7.0885 4.7396,11.7028 0,4.6477 -1.6133,8.5681 -4.8315,11.7446 -3.2936,3.3018 -7.5233,4.9904 -12.6976,5.0656 -1.1284,0.0585 -2.1316,-0.1087 -3.0009,-0.4932 -0.3762,-0.1588 -0.744,-0.3761 -1.0951,-0.652 -0.3594,-0.2675 -0.677,-0.6186 -0.9529,-1.0449 -0.2842,-0.4179 -0.51,-0.9279 -0.6855,-1.5297 -0.1671,-0.5935 -0.2591,-1.2957 -0.2591,-2.0981zm56.7251 5.8095c-1.162,0.0585 -2.1984,-0.1337 -3.1096,-0.5851 -0.3929,-0.1922 -0.7774,-0.4514 -1.1452,-0.769 -0.3762,-0.3177 -0.7106,-0.7273 -1.0031,-1.2288 -0.2842,-0.4932 -0.5183,-1.0951 -0.6938,-1.7973 -0.1756,-0.7021 -0.2675,-1.5296 -0.2675,-2.4743l0 -7.4313 -15.2471 0 0 7.4815c0,0.9362 -0.0919,1.7554 -0.2674,2.4492 -0.184,0.6938 -0.418,1.2873 -0.7106,1.7889 -0.2926,0.4932 -0.6186,0.9027 -0.9947,1.2204 -0.3762,0.3176 -0.7523,0.5768 -1.1369,0.7607 -0.9194,0.4514 -1.956,0.6436 -3.1096,0.5851l0 -33.6706c1.1536,-0.0334 2.1902,0.1589 3.1096,0.5768 0.3846,0.1755 0.7607,0.4096 1.1369,0.7105 0.3761,0.2926 0.7021,0.6604 0.9947,1.1201 0.2926,0.4515 0.5266,0.9865 0.7106,1.6218 0.1755,0.6269 0.2674,1.3625 0.2674,2.2151l0 7.2223 15.2471 0 0 -7.356c0,-0.8192 0.0919,-1.5297 0.2675,-2.1483 0.1755,-0.6102 0.4096,-1.1369 0.6938,-1.5799 0.2925,-0.4347 0.6269,-0.8025 1.0031,-1.0867 0.3678,-0.2842 0.7523,-0.5182 1.1452,-0.6938 0.9112,-0.4179 1.9476,-0.6186 3.1096,-0.6019l0 33.6706zm34.2808 0.0585l-25.5789 0 0 -33.6539 25.5789 0c0,0.8026 -0.0919,1.5047 -0.2841,2.1066 -0.1839,0.5935 -0.4347,1.1034 -0.744,1.5297 -0.3093,0.4263 -0.6687,0.7773 -1.0616,1.0616 -0.3929,0.2758 -0.7941,0.4932 -1.2038,0.6604 -0.9612,0.3845 -2.0563,0.56 -3.2851,0.5099l-12.8313 0 0 7.5734 13.5335 0c0,0.7523 -0.0836,1.4126 -0.2508,1.9894 -0.1588,0.5685 -0.3762,1.07 -0.6436,1.4879 -0.2759,0.418 -0.5768,0.7691 -0.9196,1.0533 -0.3426,0.2843 -0.6938,0.5183 -1.0449,0.7022 -0.8359,0.4263 -1.7888,0.652 -2.8504,0.6854l-7.8242 0 0 8.4261 13.6505 0c0.7439,0 1.396,0.0835 1.9644,0.2507 0.5601,0.1672 1.0449,0.3929 1.4545,0.6687 0.4096,0.2759 0.7523,0.5852 1.0281,0.9363 0.2759,0.351 0.5016,0.7105 0.6771,1.0783 0.3929,0.861 0.6103,1.839 0.6353,2.934z"/>
    <path id="_307629224" class="fil0" d="M132.81 73.1793l-13.8099 0 0 -18.1695 13.8099 0c0,0.4332 -0.0498,0.8123 -0.1535,1.1372 -0.0993,0.3205 -0.2347,0.5958 -0.4017,0.826 -0.1669,0.2301 -0.3611,0.4196 -0.5732,0.5731 -0.2121,0.1489 -0.4287,0.2662 -0.6498,0.3566 -0.519,0.2075 -1.1102,0.3023 -1.7736,0.2752l-6.9275 0 0 4.0888 7.3066 0c0,0.4062 -0.0452,0.7627 -0.1354,1.0741 -0.0858,0.3069 -0.2031,0.5777 -0.3475,0.8033 -0.1489,0.2257 -0.3114,0.4153 -0.4965,0.5687 -0.185,0.1534 -0.3746,0.2798 -0.5641,0.3791 -0.4513,0.2302 -0.9658,0.352 -1.5389,0.3701l-4.2242 0 0 4.5491 7.3698 0c0.4016,0 0.7536,0.0451 1.0605,0.1353 0.3024,0.0904 0.5641,0.2122 0.7853,0.3611 0.2211,0.149 0.4061,0.3159 0.5551,0.5054 0.1489,0.1896 0.2708,0.3837 0.3656,0.5823 0.2121,0.4648 0.3294,0.9928 0.343,1.5841zm7.1983 -9.1028l-5.136 -8.471c0.4695,-0.2979 0.9523,-0.4829 1.4398,-0.5461 0.2075,-0.027 0.4287,-0.0316 0.6589,-0.0136 0.2301,0.0181 0.4648,0.0768 0.704,0.1761 0.2391,0.0992 0.4784,0.2437 0.7131,0.4377 0.2391,0.1941 0.4693,0.4514 0.6905,0.7718 0.0315,0.0676 0.0992,0.185 0.1985,0.3565 0.0993,0.176 0.2211,0.3746 0.3566,0.6093 0.1398,0.2347 0.2933,0.4919 0.4603,0.7717 0.167,0.2798 0.3339,0.5596 0.5009,0.8349 0.3971,0.6634 0.8349,1.3855 1.3133,2.1753l3.448 -6.1152 3.9489 0 -5.5059 9.0126c0.8845,1.4622 1.6878,2.7935 2.419,3.9895 0.3068,0.5144 0.6138,1.0199 0.9206,1.5209 0.3069,0.5054 0.5867,0.9658 0.8439,1.3854 0.2528,0.4153 0.474,0.7718 0.6544,1.0696 0.1806,0.2934 0.3024,0.4919 0.3611,0.5868 -0.343,0.2121 -0.6634,0.361 -0.9658,0.4422 -0.3024,0.0858 -0.5867,0.1264 -0.853,0.1264 -0.2617,-0.0045 -0.5054,-0.0451 -0.7265,-0.1174 -0.2257,-0.0766 -0.4243,-0.167 -0.6048,-0.2798 -0.4242,-0.2527 -0.7898,-0.6137 -1.1012,-1.0741l-2.8387 -4.7296 -3.466 6.1377 -3.9218 0 5.4879 -9.0576zm20.4394 9.0757c-1.3539,0 -2.5949,-0.2212 -3.7232,-0.668 -1.1328,-0.4423 -2.1617,-1.1102 -3.0869,-1.9993 -0.9342,-0.9071 -1.6337,-1.909 -2.0985,-2.9966 -0.4649,-1.0921 -0.6996,-2.2926 -0.6996,-3.6059 0,-1.3088 0.2347,-2.5137 0.7041,-3.6059 0.4738,-1.0967 1.1779,-2.0941 2.121,-2.9922 1.8549,-1.769 4.1204,-2.6536 6.7967,-2.6536 0.7492,0 1.4713,0.0722 2.1708,0.2211 0.6995,0.1489 1.3764,0.3746 2.0353,0.6814 0.6499,0.3025 1.2592,0.6861 1.8233,1.1464 0.5641,0.4649 1.0967,1.0019 1.5976,1.6201l-2.7348 2.031c-0.6048,-0.8665 -1.3088,-1.5119 -2.1167,-1.9406 -0.8078,-0.4289 -1.733,-0.6455 -2.7755,-0.6455 -1.6428,0 -3.0734,0.5957 -4.2919,1.7827 -1.223,1.1915 -1.8368,2.6447 -1.8368,4.3596 0,1.6969 0.6138,3.1456 1.8368,4.3506 1.2275,1.2005 2.6582,1.8006 4.2919,1.8006l7.6812 0c0,0.4108 -0.0451,0.7673 -0.1399,1.0697 -0.0903,0.3068 -0.2121,0.5686 -0.3656,0.7897 -0.1534,0.2257 -0.325,0.4108 -0.5235,0.5552 -0.194,0.1489 -0.3927,0.2707 -0.5957,0.361 -0.4784,0.2166 -1.0154,0.3294 -1.6202,0.3385l-4.4499 0zm25.8236 -0.0046c-0.6273,0.0317 -1.1869,-0.0722 -1.6788,-0.3159 -0.2121,-0.1037 -0.4197,-0.2437 -0.6184,-0.4151 -0.203,-0.1715 -0.3835,-0.3927 -0.5415,-0.6635 -0.1534,-0.2662 -0.2798,-0.5912 -0.3746,-0.9703 -0.0947,-0.3791 -0.1444,-0.8259 -0.1444,-1.3359l0 -4.0121 -8.2318 0 0 4.0392c0,0.5055 -0.0496,0.9477 -0.1443,1.3223 -0.0993,0.3747 -0.2257,0.6951 -0.3837,0.9659 -0.1579,0.2662 -0.3339,0.4874 -0.537,0.6588 -0.2032,0.1715 -0.4062,0.3115 -0.6138,0.4107 -0.4965,0.2437 -1.056,0.3476 -1.6789,0.3159l0 -18.1784c0.6229,-0.0181 1.1824,0.0857 1.6789,0.3113 0.2076,0.0948 0.4106,0.2212 0.6138,0.3837 0.2031,0.1579 0.3791,0.3565 0.537,0.6047 0.158,0.2437 0.2844,0.5325 0.3837,0.8756 0.0947,0.3384 0.1443,0.7356 0.1443,1.1958l0 3.8993 8.2318 0 0 -3.9714c0,-0.4423 0.0497,-0.8259 0.1444,-1.1599 0.0948,-0.3295 0.2212,-0.6137 0.3746,-0.8529 0.158,-0.2347 0.3385,-0.4333 0.5415,-0.5867 0.1987,-0.1534 0.4063,-0.2798 0.6184,-0.3746 0.4919,-0.2257 1.0515,-0.334 1.6788,-0.3249l0 18.1784zm15.8544 -3.299l-4.7884 0.0136c-0.6228,0.018 -1.1824,-0.0813 -1.6788,-0.2889 -0.2076,-0.0902 -0.4152,-0.2076 -0.6184,-0.3565 -0.1985,-0.1444 -0.3791,-0.334 -0.5325,-0.5596 -0.1579,-0.2257 -0.2843,-0.4965 -0.3791,-0.8124 -0.0947,-0.3113 -0.1398,-0.6814 -0.1398,-1.1102l8.137 0 0 -3.6871c0,-0.8169 -0.1129,-1.5525 -0.3385,-2.1979 -0.2212,-0.6499 -0.5551,-1.2139 -1.002,-1.6969 -0.8935,-0.9748 -2.0128,-1.4622 -3.3622,-1.4622 -0.6769,0 -1.2952,0.1218 -1.8548,0.3611 -0.5596,0.2391 -1.0561,0.6047 -1.4984,1.1011 -0.8935,0.9568 -1.3403,2.2566 -1.3403,3.8948l0 10.1047 -3.3847 0 0 -10.8223c0,-2.1662 0.7536,-4.0121 2.2565,-5.542 0.7627,-0.7627 1.6246,-1.3358 2.5904,-1.7195 0.9658,-0.3836 2.0444,-0.5732 3.2313,-0.5732 1.196,0 2.2746,0.1896 3.2359,0.5732 0.9613,0.3837 1.8188,0.9568 2.5724,1.7195 1.5209,1.5344 2.2791,3.3803 2.2791,5.542l0 10.8223 -3.3847 0 0 -3.3036zm21.3602 -11.63l0 10.398c0.027,0.5416 0.0361,1.0244 0.0225,1.4486 -0.009,0.4243 -0.036,0.7988 -0.0722,1.1283 -0.0361,0.3249 -0.0812,0.6093 -0.1354,0.8484 -0.0541,0.2392 -0.1083,0.4378 -0.1715,0.6003 -0.1444,0.3881 -0.3159,0.6498 -0.5144,0.7898l-10.7726 -10.8358 0 10.7365c-0.6364,0.1218 -1.205,0.0587 -1.706,-0.1941 -0.2121,-0.1038 -0.4197,-0.2572 -0.6227,-0.4603 -0.2077,-0.1986 -0.3882,-0.4649 -0.5507,-0.7898 -0.1624,-0.325 -0.2888,-0.7266 -0.3881,-1.2005 -0.0947,-0.4784 -0.1444,-1.047 -0.1444,-1.7059l0 -9.3871c-0.0226,-0.88 -0.0045,-1.6653 0.0542,-2.3558 0.027,-0.2934 0.0631,-0.5821 0.1172,-0.8665 0.0497,-0.2798 0.1129,-0.5325 0.1942,-0.7537 0.0766,-0.2211 0.176,-0.3971 0.2933,-0.5325 0.1173,-0.1309 0.2527,-0.1986 0.4152,-0.1986 0.1128,0.1173 0.2798,0.2889 0.5009,0.519 0.2211,0.2256 0.4784,0.492 0.7763,0.8033 0.2979,0.3069 0.6273,0.6499 0.9883,1.0245 0.3611,0.3746 0.7402,0.7672 1.1418,1.1824 0.3971,0.4152 0.8079,0.8395 1.2321,1.2817 0.4197,0.4423 0.8439,0.88 1.2591,1.3133 1.4758,1.539 3.0915,3.2313 4.8606,5.0771l0 -11.2283c0.6002,-0.0272 1.1372,0.0676 1.6066,0.2887 0.2031,0.0949 0.4017,0.2212 0.5957,0.3791 0.1941,0.158 0.3656,0.3611 0.5145,0.6048 0.1535,0.2437 0.2753,0.537 0.3656,0.8801 0.0947,0.3384 0.1399,0.7401 0.1399,1.205zm22.2447 6.422c0,0.9793 -0.1849,1.9271 -0.5506,2.8432 -0.3655,0.9116 -0.9161,1.8142 -1.6517,2.6988 -0.9342,1.1282 -2.0219,1.9632 -3.2675,2.5182 -1.241,0.5552 -2.6446,0.8305 -4.2016,0.8305 -1.3765,0 -2.6311,-0.2302 -3.7684,-0.686 -1.1373,-0.4558 -2.1797,-1.1418 -3.1185,-2.0579 -1.8594,-1.8234 -2.789,-4.0663 -2.789,-6.729 0,-2.6672 0.9432,-4.9057 2.8296,-6.7244 1.8549,-1.8187 4.1385,-2.7305 6.8463,-2.7305 1.4983,0 2.9064,0.307 4.2288,0.9207 0.6589,0.3115 1.2726,0.704 1.8458,1.1689 0.5731,0.4694 1.1056,1.0245 1.6066,1.6653 -0.3836,0.3701 -0.7988,0.6544 -1.2456,0.8484 -0.1895,0.0813 -0.3972,0.149 -0.6183,0.2032 -0.2256,0.0496 -0.4603,0.0676 -0.7085,0.0587 -0.2482,-0.0136 -0.5055,-0.0587 -0.7717,-0.1445 -0.2708,-0.0857 -0.5461,-0.2301 -0.8304,-0.4242 -0.4965,-0.3746 -1.0335,-0.6544 -1.6157,-0.8439 -0.5822,-0.1896 -1.2186,-0.2844 -1.9045,-0.2844 -1.6517,0 -3.0915,0.6093 -4.3235,1.8278 -1.232,1.2186 -1.8458,2.7078 -1.8458,4.4589 0,0.8755 0.1534,1.6834 0.4603,2.4235 0.3069,0.7401 0.7672,1.4171 1.3855,2.0354 0.6183,0.6183 1.2862,1.0786 2.0038,1.3855 0.7131,0.3068 1.4848,0.4603 2.3197,0.4603 0.7672,0 1.4758,-0.1083 2.1347,-0.325 0.6544,-0.2166 1.2591,-0.546 1.8097,-0.9883 1.0876,-0.8485 1.8142,-2.0534 2.1753,-3.615l-2.7756 0c-0.4557,0 -0.8484,-0.0451 -1.1869,-0.1398 -0.3384,-0.0903 -0.6273,-0.2121 -0.871,-0.3611 -0.2482,-0.1534 -0.4467,-0.3249 -0.6047,-0.5145 -0.1625,-0.194 -0.2889,-0.3881 -0.3836,-0.5912 -0.2302,-0.4738 -0.3385,-1.0109 -0.325,-1.6156l9.712 0 0 2.428zm17.3166 8.5387l-13.8099 0 0 -18.1695 13.8099 0c0,0.4332 -0.0497,0.8123 -0.1535,1.1372 -0.0993,0.3205 -0.2346,0.5958 -0.4016,0.826 -0.167,0.2301 -0.3611,0.4196 -0.5732,0.5731 -0.2121,0.1489 -0.4287,0.2662 -0.6499,0.3566 -0.5189,0.2075 -1.1101,0.3023 -1.7736,0.2752l-6.9275 0 0 4.0888 7.3066 0c0,0.4062 -0.0451,0.7627 -0.1353,1.0741 -0.0858,0.3069 -0.2032,0.5777 -0.3476,0.8033 -0.1489,0.2257 -0.3114,0.4153 -0.4964,0.5687 -0.185,0.1534 -0.3746,0.2798 -0.5641,0.3791 -0.4513,0.2302 -0.9659,0.352 -1.539,0.3701l-4.2242 0 0 4.5491 7.3698 0c0.4017,0 0.7537,0.0451 1.0605,0.1353 0.3025,0.0904 0.5642,0.2122 0.7853,0.3611 0.2212,0.149 0.4062,0.3159 0.5552,0.5054 0.1489,0.1896 0.2708,0.3837 0.3655,0.5823 0.2121,0.4648 0.3295,0.9928 0.343,1.5841z"/>
   </g>
   <g>
    <g style="clip-path:url(#id0)">
     <image id="_307625024" transform="matrix(1 0 0 1 -138.858 48.3281)" x="135" y="-51.8574" width="92.83" height="96.8574" xlink:href="Radhe_Final_Logo_v12_QQ_Images\Radhe_Final_Logo_v12_QQ_ImgID1.png"/>
    </g>
   </g>
   <circle id="_307633616" class="fil1" cx="44.3079" cy="44.8994" r="42.1119"/>
   <g>
    <g style="clip-path:url(#id1)">
     <image id="_309162248" transform="matrix(1 0 0 1 -118.069 31.8752)" x="135" y="-18.9517" width="54.7545" height="63.9517" xlink:href="Radhe_Final_Logo_v12_QQ_Images\Radhe_Final_Logo_v12_QQ_ImgID2.png"/>
    </g>
   </g>
   <path id="_307633400" class="fil2" d="M42.9549 43.0318c-8.6101,9.1218 0,0 -8.6101,9.1218l11.2591 11.2998c5.4965,5.4837 8.0667,9.02 12.11,9.8509 4.7662,-0.1498 10.3628,-5.1732 2.8771,-12.6224 -9.9679,-9.9571 -11.6806,-11.6752 -17.6361,-17.6501zm7.6684 7.693l5.184 0c12.6702,-1.6154 16.2518,-20.9149 7.4716,-29.9465 -4.6367,-4.7682 -11.2111,-4.2684 -19.4543,-4.2691 -5.6311,0.0007 -5.6304,0.0007 -23.3224,0.0007l-0.0007 34.2149c14.7058,-15.5563 0,0 14.7058,-15.5563l-6.8835 -6.7344 22.2995 -0.0015 0 22.2922z"/>
  </g>
 </g>
</svg>
